HIERARCHY
ROOT hip
{
  OFFSET 0 0 0
  CHANNELS 6 Xposition Yposition Zposition Zrotation Yrotation Xrotation
  JOINT abdomen
  {
    OFFSET 0 20.6881 -0.73152
    CHANNELS 3 Zrotation Xrotation Yrotation
    JOINT chest
    {
      OFFSET 0 11.7043 -0.48768
      CHANNELS 3 Zrotation Xrotation Yrotation
      JOINT neck
      {
        OFFSET 0 22.1894 -2.19456
        CHANNELS 3 Zrotation Xrotation Yrotation
        JOINT head
        {
          OFFSET -0.24384 7.07133 1.2192
          CHANNELS 3 Zrotation Xrotation Yrotation
          JOINT leftEye
          {
            OFFSET 4.14528 8.04674 8.04672
            CHANNELS 3 Zrotation Xrotation Yrotation
            End Site
            {
              OFFSET 1 0 0
            }
          }
          JOINT rightEye
          {
            OFFSET -3.6576 8.04674 8.04672
            CHANNELS 3 Zrotation Xrotation Yrotation
            End Site
            {
              OFFSET 1 0 0
            }
          }
        }
      }
      JOINT rCollar
      {
        OFFSET -2.68224 19.2634 -4.8768
        CHANNELS 3 Zrotation Xrotation Yrotation
        JOINT rShldr
        {
          OFFSET -8.77824 -1.95073 1.46304
          CHANNELS 3 Zrotation Xrotation Yrotation
          JOINT rForeArm
          {
            OFFSET -28.1742 -1.7115 0.48768
            CHANNELS 3 Zrotation Xrotation Yrotation
            JOINT rHand
            {
              OFFSET -22.5879 0.773209 7.07136
              CHANNELS 3 Zrotation Xrotation Yrotation
              JOINT rThumb1
              {
                OFFSET -1.2192 -0.487915 3.41376
                CHANNELS 3 Zrotation Xrotation Yrotation
                JOINT rThumb2
                {
                  OFFSET -3.37035 -0.52449 3.41376
                  CHANNELS 3 Zrotation Xrotation Yrotation
                  End Site
                  {
                    OFFSET -1.78271 -1.18214 1.43049
                  }
                }
              }
              JOINT rIndex1
              {
                OFFSET -7.75947 0.938293 5.60832
                CHANNELS 3 Zrotation Xrotation Yrotation
                JOINT rIndex2
                {
                  OFFSET -2.54057 -0.884171 1.56538
                  CHANNELS 3 Zrotation Xrotation Yrotation
                  End Site
                  {
                    OFFSET -1.62519 -0.234802 1.16502
                  }
                }
              }
              JOINT rMid1
              {
                OFFSET -8.24714 1.18213 3.41376
                CHANNELS 3 Zrotation Xrotation Yrotation
                JOINT rMid2
                {
                  OFFSET -3.10165 -0.590103 1.0647
                  CHANNELS 3 Zrotation Xrotation Yrotation
                  End Site
                  {
                    OFFSET -2.48547 -0.328903 0.83742
                  }
                }
              }
              JOINT rRing1
              {
                OFFSET -8.82822 0.546677 1.51678
                CHANNELS 3 Zrotation Xrotation Yrotation
                JOINT rRing2
                {
                  OFFSET -2.60934 -0.819778 -0.0198488
                  CHANNELS 3 Zrotation Xrotation Yrotation
                  End Site
                  {
                    OFFSET -2.33842 -0.294052 0.168128
                  }
                }
              }
              JOINT rPinky1
              {
                OFFSET -8.27202 -0.0477905 -0.4584
                CHANNELS 3 Zrotation Xrotation Yrotation
                JOINT rPinky2
                {
                  OFFSET -1.82734 -0.647385 -0.700984
                  CHANNELS 3 Zrotation Xrotation Yrotation
                  End Site
                  {
                    OFFSET -1.69225 -0.51767 -0.607171
                  }
                }
              }
            }
          }
        }
      }
      JOINT lCollar
      {
        OFFSET 2.68224 19.2634 -4.8768
        CHANNELS 3 Zrotation Xrotation Yrotation
        JOINT lShldr
        {
          OFFSET 8.77824 -1.95073 1.46304
          CHANNELS 3 Zrotation Xrotation Yrotation
          JOINT lForeArm
          {
            OFFSET 28.1742 -1.7115 0.48768
            CHANNELS 3 Zrotation Xrotation Yrotation
            JOINT lHand
            {
              OFFSET 22.5879 0.773209 7.07136
              CHANNELS 3 Zrotation Xrotation Yrotation
              JOINT lThumb1
              {
                OFFSET 1.2192 -0.487915 3.41376
                CHANNELS 3 Zrotation Xrotation Yrotation
                JOINT lThumb2
                {
                  OFFSET 3.37035 -0.52449 3.41376
                  CHANNELS 3 Zrotation Xrotation Yrotation
                  End Site
                  {
                    OFFSET 1.78271 -1.18214 1.43049
                  }
                }
              }
              JOINT lIndex1
              {
                OFFSET 7.75947 0.938293 5.60832
                CHANNELS 3 Zrotation Xrotation Yrotation
                JOINT lIndex2
                {
                  OFFSET 2.54057 -0.884171 1.56538
                  CHANNELS 3 Zrotation Xrotation Yrotation
                  End Site
                  {
                    OFFSET 1.62519 -0.234802 1.16502
                  }
                }
              }
              JOINT lMid1
              {
                OFFSET 8.24714 1.18213 3.41376
                CHANNELS 3 Zrotation Xrotation Yrotation
                JOINT lMid2
                {
                  OFFSET 3.10165 -0.590103 1.0647
                  CHANNELS 3 Zrotation Xrotation Yrotation
                  End Site
                  {
                    OFFSET 2.48547 -0.328903 0.83742
                  }
                }
              }
              JOINT lRing1
              {
                OFFSET 8.82822 0.546677 1.51678
                CHANNELS 3 Zrotation Xrotation Yrotation
                JOINT lRing2
                {
                  OFFSET 2.60934 -0.819778 -0.0198488
                  CHANNELS 3 Zrotation Xrotation Yrotation
                  End Site
                  {
                    OFFSET 2.33842 -0.294052 0.168128
                  }
                }
              }
              JOINT lPinky1
              {
                OFFSET 8.27202 -0.0477905 -0.4584
                CHANNELS 3 Zrotation Xrotation Yrotation
                JOINT lPinky2
                {
                  OFFSET 1.82734 -0.647385 -0.700984
                  CHANNELS 3 Zrotation Xrotation Yrotation
                  End Site
                  {
                    OFFSET 1.69225 -0.51767 -0.607171
                  }
                }
              }
            }
          }
        }
      }
    }
  }
  JOINT rButtock
  {
    OFFSET -8.77824 4.35084 1.2192
    CHANNELS 3 Zrotation Xrotation Yrotation
    JOINT rThigh
    {
      OFFSET 0 -1.70687 -2.19456
      CHANNELS 3 Zrotation Xrotation Yrotation
      JOINT rShin
      {
        OFFSET 0 -36.8199 0.73152
        CHANNELS 3 Zrotation Xrotation Yrotation
        JOINT rFoot
        {
          OFFSET 0.73152 -45.1104 -5.12064
          CHANNELS 3 Zrotation Xrotation Yrotation
          End Site
          {
            OFFSET -1.1221 -3.69964 12.103
          }
        }
      }
    }
  }
  JOINT lButtock
  {
    OFFSET 8.77824 4.35084 1.2192
    CHANNELS 3 Zrotation Xrotation Yrotation
    JOINT lThigh
    {
      OFFSET 0 -1.70687 -2.19456
      CHANNELS 3 Zrotation Xrotation Yrotation
      JOINT lShin
      {
        OFFSET 0 -36.8199 0.73152
        CHANNELS 3 Zrotation Xrotation Yrotation
        JOINT lFoot
        {
          OFFSET -0.73152 -45.1104 -5.12064
          CHANNELS 3 Zrotation Xrotation Yrotation
          End Site
          {
            OFFSET 1.1221 -3.69964 12.103
          }
        }
      }
    }
  }
}
MOTION
Frames:	8
Frame Time:	0.00833333
-17.8225 73.1867 -32.2954 -196.278 23.0924 182.969 -10.7979 28.1111 22.2715 -2.29005 -5.66713 6.0438 -9.68446 5.85412 -18.0207 23.2367 -14.4523 -33.0324 -0.0 0.0 0.0 -0.0 0.0 0.0 -3.12876e-13 -6.58478e-14 -1.88708e-13 24.9895 3.60443 43.6115 -27.5718 -28.4827 64.8401 -0.353513 -16.665 -2.41128 3.13641e-09 2.34962e-08 -5.25694e-10 5.41884e-09 4.06437e-08 -8.65566e-10 3.13641e-09 2.34962e-08 -5.25712e-10 7.73091 5.47488 0.417314 3.13641e-09 2.34962e-08 -5.25696e-10 2.90554 0.965183 0.102902 3.13641e-09 2.34962e-08 -5.25702e-10 10.2786 0.731801 0.0259123 3.1364e-09 2.34962e-08 -5.25699e-10 2.22167 -0.733487 -0.20892 -3.12873e-13 -6.58468e-14 -1.88912e-13 -1.57845 -40.5237 39.0659 18.4085 -11.1327 -34.9432 4.10796 -48.4364 9.11893 -1.42994e-09 1.80393e-09 3.76459e-09 -2.60391e-09 3.10072e-09 6.43703e-09 -1.42994e-09 1.80394e-09 3.7646e-09 -7.73091 5.47488 -0.417314 -1.42994e-09 1.80394e-09 3.76459e-09 -2.90554 0.965183 -0.102902 -1.42994e-09 1.80394e-09 3.76459e-09 -10.2786 0.731801 -0.0259123 -1.42993e-09 1.80394e-09 3.76459e-09 -2.22167 -0.733487 0.20892 -2.03217e-16 0.0 -3.88251e-19 13.3675 -6.64642 -7.00734 0.0646523 21.3363 0.71509 -1.32187 0.749525 9.84949 2.03217e-16 0.0 3.88251e-19 11.7234 -44.9422 -0.157045 1.22349 62.9311 -1.97789 3.03021 -7.43961 11.7558
-16.3124 73.7802 -33.2693 -196.086 25.074 182.995 -10.571 27.6682 22.5636 -2.33091 -5.70126 6.0848 -9.78369 5.44433 -17.991 23.4323 -13.9175 -32.8697 -0.0 0.0 0.0 -0.0 0.0 0.0 -1.80824e-13 -7.31481e-14 -1.54953e-13 23.3378 5.97622 45.3306 -27.4564 -28.0032 64.0693 -0.340342 -16.3694 -2.36595 3.48725e-09 2.58065e-08 1.68299e-10 6.0172e-09 4.45716e-08 3.38153e-10 3.48725e-09 2.58065e-08 1.68277e-10 7.73091 5.47488 0.417314 3.48725e-09 2.58065e-08 1.68293e-10 2.90554 0.965183 0.102902 3.48726e-09 2.58065e-08 1.68289e-10 10.2786 0.731801 0.0259123 3.48725e-09 2.58065e-08 1.6829e-10 2.22167 -0.733487 -0.20892 -1.80777e-13 -7.3157e-14 -1.55102e-13 -1.88713 -40.9978 37.8044 18.4008 -11.1242 -34.9257 4.021 -48.0691 9.00181 -1.57991e-09 1.54119e-09 3.28919e-09 -2.84611e-09 2.63726e-09 5.61172e-09 -1.57991e-09 1.54119e-09 3.28919e-09 -7.73091 5.47488 -0.417314 -1.57991e-09 1.54119e-09 3.28918e-09 -2.90554 0.965183 -0.102902 -1.57992e-09 1.54119e-09 3.28918e-09 -10.2786 0.731801 -0.0259123 -1.57991e-09 1.54119e-09 3.28918e-09 -2.22167 -0.733487 0.20892 -2.03217e-16 0.0 -3.88251e-19 13.1758 -4.71701 -7.63441 0.0599367 20.6083 0.789912 -1.68077 2.22983 10.4854 2.03217e-16 0.0 3.88251e-19 11.678 -45.7001 0.561315 1.00577 60.0338 -1.78393 3.04472 -7.13895 11.6201
-14.7851 74.3493 -34.2361 -195.8 26.9181 183.202 -10.2925 27.1581 22.9017 -2.57621 -5.64959 6.14798 -9.62934 5.33593 -18.1085 23.6588 -13.612 -32.6858 -0.0 0.0 0.0 -0.0 0.0 0.0 5.10787e-14 -7.87403e-14 -5.12468e-14 22.3335 8.48978 46.9277 -27.3259 -27.4924 63.2429 -0.325813 -16.0255 -2.31352 3.09666e-09 1.82437e-08 1.60809e-09 5.32676e-09 3.13595e-08 2.82143e-09 3.09667e-09 1.82437e-08 1.60807e-09 7.73091 5.47488 0.417314 3.09666e-09 1.82437e-08 1.60809e-09 2.90554 0.965183 0.102902 3.09667e-09 1.82437e-08 1.60808e-09 10.2786 0.731801 0.0259123 3.09666e-09 1.82437e-08 1.60809e-09 2.22167 -0.733487 -0.20892 5.1085e-14 -7.87467e-14 -5.13761e-14 -2.18512 -41.308 36.0926 18.4017 -11.1251 -34.9276 4.01137 -48.0254 8.98844 -1.53886e-09 1.1694e-09 1.75958e-09 -2.722e-09 1.99006e-09 2.97495e-09 -1.53886e-09 1.1694e-09 1.75958e-09 -7.73091 5.47488 -0.417314 -1.53886e-09 1.1694e-09 1.75957e-09 -2.90554 0.965183 -0.102902 -1.53887e-09 1.1694e-09 1.75957e-09 -10.2786 0.731801 -0.0259123 -1.53886e-09 1.1694e-09 1.75957e-09 -2.22167 -0.733487 0.20892 -2.03217e-16 0.0 -3.88251e-19 12.6886 -2.53742 -9.05581 0.070623 20.0198 0.864844 -1.95474 3.42113 11.2165 2.03217e-16 0.0 3.88251e-19 11.7643 -46.028 1.44571 0.821793 56.7411 -1.5965 2.87011 -6.6512 10.7871
-13.1943 74.8533 -35.1944 -195.438 28.7666 183.302 -10.003 26.5962 23.2411 -2.94216 -5.53247 6.21814 -9.32181 5.40951 -18.3266 23.9003 -13.4269 -32.4783 -0.0 0.0 0.0 -0.0 0.0 0.0 3.59695e-13 -8.1305e-14 1.03436e-13 21.7385 11.1408 48.4732 -27.1812 -26.9588 62.3832 -0.311148 -15.6642 -2.25868 2.20886e-09 4.03088e-09 3.58328e-09 3.77176e-09 6.59943e-09 6.2237e-09 2.20887e-09 4.03089e-09 3.58326e-09 7.73091 5.47488 0.417314 2.20886e-09 4.03088e-09 3.58327e-09 2.90554 0.965183 0.102902 2.20887e-09 4.03089e-09 3.58327e-09 10.2786 0.731801 0.0259123 2.20886e-09 4.03089e-09 3.58328e-09 2.22167 -0.733487 -0.20892 3.59609e-13 -8.13014e-14 1.03309e-13 -2.48406 -41.48 34.0686 18.4107 -11.1351 -34.9482 4.0543 -48.2052 9.04599 -1.3652e-09 6.82816e-10 -5.41767e-10 -2.34213e-09 1.14719e-09 -9.88068e-10 -1.3652e-09 6.82819e-10 -5.41764e-10 -7.73091 5.47488 -0.417314 -1.3652e-09 6.82822e-10 -5.41769e-10 -2.90554 0.965183 -0.102902 -1.36521e-09 6.82818e-10 -5.41767e-10 -10.2786 0.731801 -0.0259123 -1.3652e-09 6.82818e-10 -5.4177e-10 -2.22167 -0.733487 0.20892 -2.03217e-16 0.0 -3.88251e-19 12.0444 -0.246932 -11.0465 0.0870607 19.6289 0.944295 -2.15717 4.37541 11.9294 2.03217e-16 0.0 3.88251e-19 11.8809 -45.9937 2.36206 0.669783 53.0679 -1.42382 2.57592 -5.99049 9.45493
-11.6288 75.3183 -36.175 -195.066 30.5671 183.203 -9.64923 26.0606 23.4808 -3.32846 -5.40114 6.26784 -8.99537 5.5214 -18.5411 24.1218 -13.2692 -32.2563 -0.0 0.0 0.0 -0.0 0.0 0.0 6.26026e-13 -8.45657e-14 2.57638e-13 21.3891 13.88 49.8864 -27.0287 -26.4308 61.5473 -0.294539 -15.2508 -2.19611 1.26428e-09 -9.49638e-09 5.24515e-09 2.12224e-09 -1.69534e-08 9.08325e-09 1.26429e-09 -9.49637e-09 5.24514e-09 7.73091 5.47488 0.417314 1.26428e-09 -9.49638e-09 5.24515e-09 2.90554 0.965183 0.102902 1.26429e-09 -9.49638e-09 5.24515e-09 10.2786 0.731801 0.0259123 1.26428e-09 -9.49637e-09 5.24516e-09 2.22167 -0.733487 -0.20892 6.25844e-13 -8.45515e-14 2.57502e-13 -2.74035 -41.6304 31.9882 18.4252 -11.1512 -34.9812 4.09731 -48.3851 9.1037 -1.10807e-09 2.13404e-10 -2.72099e-09 -1.82227e-09 3.36406e-10 -4.7372e-09 -1.10807e-09 2.13405e-10 -2.72098e-09 -7.73091 5.47488 -0.417314 -1.10807e-09 2.13407e-10 -2.72099e-09 -2.90554 0.965183 -0.102902 -1.10807e-09 2.13403e-10 -2.72099e-09 -10.2786 0.731801 -0.0259123 -1.10806e-09 2.13403e-10 -2.72099e-09 -2.22167 -0.733487 0.20892 -2.03217e-16 0.0 -3.88251e-19 11.5675 1.94355 -12.9444 0.102578 19.574 1.02016 -2.22755 4.89629 12.3353 2.03217e-16 0.0 3.88251e-19 12.0486 -45.7258 3.2192 0.545515 49.2676 -1.2606 2.23007 -5.18458 7.85301
-10.1581 75.6734 -37.1086 -194.734 32.2392 183.178 -9.1828 25.6281 23.5209 -3.63441 -5.30683 6.26965 -8.7867 5.52884 -18.6474 24.2868 -13.0455 -32.0302 -0.0 0.0 0.0 -0.0 0.0 0.0 7.31071e-13 -9.2246e-14 3.599e-13 21.1484 16.6948 51.0746 -26.8793 -25.9427 60.7891 -0.274526 -14.7508 -2.12062 7.0337e-10 -1.50027e-08 5.745e-09 1.14821e-09 -2.65438e-08 9.93838e-09 7.03376e-10 -1.50027e-08 5.74499e-09 7.73091 5.47488 0.417314 7.03368e-10 -1.50027e-08 5.745e-09 2.90554 0.965183 0.102902 7.03377e-10 -1.50027e-08 5.74501e-09 10.2786 0.731801 0.0259123 7.03366e-10 -1.50027e-08 5.74501e-09 2.22167 -0.733487 -0.20892 7.30839e-13 -9.22275e-14 3.59751e-13 -2.93474 -41.9038 30.0965 18.4424 -11.1704 -35.0204 4.08606 -48.3415 9.08908 -8.16589e-10 -1.06879e-10 -3.88423e-09 -1.27823e-09 -2.14516e-10 -6.73229e-09 -8.16594e-10 -1.0688e-10 -3.88423e-09 -7.73091 5.47488 -0.417314 -8.16589e-10 -1.06878e-10 -3.88423e-09 -2.90554 0.965183 -0.102902 -8.16596e-10 -1.06882e-10 -3.88423e-09 -10.2786 0.731801 -0.0259123 -8.16586e-10 -1.06882e-10 -3.88423e-09 -2.22167 -0.733487 0.20892 -2.03217e-16 0.0 -3.88251e-19 11.4563 3.84883 -14.08 0.109745 19.9937 1.08464 -2.09862 4.78958 12.1447 2.03217e-16 0.0 3.88251e-19 12.3022 -45.3549 3.93629 0.442449 45.5939 -1.09799 1.88931 -4.26648 6.20893
-8.77493 75.9314 -37.9615 -194.165 33.8549 183.432 -8.52617 25.3338 23.2881 -3.84549 -5.27411 6.20651 -8.74956 5.39612 -18.5982 24.3585 -12.7174 -31.7971 -0.0 0.0 0.0 -0.0 0.0 0.0 5.83607e-13 -1.08618e-13 4.11477e-13 21.0092 19.7813 52.1323 -26.7455 -25.5248 60.1414 -0.250971 -14.1357 -2.02824 7.20099e-10 -7.01628e-09 4.32554e-09 1.19308e-09 -1.26588e-08 7.48132e-09 7.20104e-10 -7.01626e-09 4.32553e-09 7.73091 5.47488 0.417314 7.20097e-10 -7.01627e-09 4.32554e-09 2.90554 0.965183 0.102902 7.20106e-10 -7.01628e-09 4.32554e-09 10.2786 0.731801 0.0259123 7.20095e-10 -7.01628e-09 4.32555e-09 2.22167 -0.733487 -0.20892 5.83399e-13 -1.08605e-13 4.11306e-13 -3.03281 -42.4249 28.5046 18.4606 -11.1907 -35.062 4.00221 -47.9927 8.97695 -3.27448e-10 -7.41778e-11 -3.64868e-09 -4.41745e-10 -1.54244e-10 -6.30698e-09 -3.27456e-10 -7.41798e-11 -3.64867e-09 -7.73091 5.47488 -0.417314 -3.27449e-10 -7.41781e-11 -3.64868e-09 -2.90554 0.965183 -0.102902 -3.27457e-10 -7.41814e-11 -3.64868e-09 -10.2786 0.731801 -0.0259123 -3.27445e-10 -7.41811e-11 -3.64868e-09 -2.22167 -0.733487 0.20892 -2.03217e-16 0.0 -3.88251e-19 11.7488 5.45281 -14.1852 0.105111 20.8353 1.13346 -1.66753 3.69247 11.0367 2.03217e-16 0.0 3.88251e-19 12.7119 -44.8693 4.48219 0.358472 41.9617 -0.925233 1.54318 -3.1758 4.42799
-7.29658 76.1134 -38.7131 -193.153 35.4605 183.76 -7.73301 25.1287 22.8527 -4.01118 -5.272 6.09629 -8.80467 5.1984 -18.4559 24.3641 -12.3387 -31.5544 -0.0 0.0 0.0 -0.0 0.0 0.0 2.66931e-13 -1.30602e-13 4.34823e-13 21.0551 23.1616 53.1717 -26.625 -25.1598 59.5625 -0.225942 -13.4303 -1.92306 1.05406e-09 9.37878e-09 1.61638e-09 1.80015e-09 1.58616e-08 2.79764e-09 1.05406e-09 9.37879e-09 1.61638e-09 7.73091 5.47488 0.417314 1.05406e-09 9.37879e-09 1.61639e-09 2.90554 0.965183 0.102902 1.05407e-09 9.37878e-09 1.61639e-09 10.2786 0.731801 0.0259123 1.05406e-09 9.37878e-09 1.61639e-09 2.22167 -0.733487 -0.20892 2.66789e-13 -1.30602e-13 4.34618e-13 -3.08006 -43.1086 27.0557 18.4816 -11.214 -35.11 3.87946 -47.4649 8.81103 3.26753e-10 1.84908e-10 -2.53921e-09 6.49226e-10 2.9888e-10 -4.3679e-09 3.26743e-10 1.84904e-10 -2.53919e-09 -7.73091 5.47488 -0.417314 3.26752e-10 1.84907e-10 -2.5392e-09 -2.90554 0.965183 -0.102902 3.26743e-10 1.84904e-10 -2.5392e-09 -10.2786 0.731801 -0.0259123 3.26758e-10 1.84905e-10 -2.53921e-09 -2.22167 -0.733487 0.20892 -2.03217e-16 0.0 -3.88251e-19 12.2305 6.86783 -13.6369 0.0914794 22.055 1.17251 -1.0844 1.79365 9.26038 2.03217e-16 0.0 3.88251e-19 13.2316 -44.2187 4.89869 0.299375 38.2865 -0.747781 1.2115 -1.91613 2.4424
